<svg width="96" height="96" viewBox="0 0 96 96" fill="none" xmlns="http://www.w3.org/2000/svg">
<g filter="url(#filter0_dd_5162_37860)">
<rect x="16" y="8" width="64" height="64" rx="32" fill="#239FE7"/>
<g clip-path="url(#clip0_5162_37860)">
<path fill-rule="evenodd" clip-rule="evenodd" d="M48 25.4252C48.5669 25.4252 49.0264 25.8847 49.0264 26.4516L49.0264 38.9736L61.5484 38.9736C62.1153 38.9736 62.5748 39.4331 62.5748 40C62.5748 40.5669 62.1153 41.0265 61.5484 41.0265L49.0264 41.0265L49.0264 53.5484C49.0264 54.1153 48.5669 54.5749 48 54.5749C47.4331 54.5749 46.9736 54.1153 46.9736 53.5484L46.9736 41.0265L34.4516 41.0265C33.8847 41.0265 33.4252 40.5669 33.4252 40C33.4252 39.4331 33.8847 38.9736 34.4516 38.9736L46.9736 38.9736L46.9736 26.4516C46.9736 25.8847 47.4331 25.4252 48 25.4252Z" fill="white"/>
</g>
</g>
<defs>
<filter id="filter0_dd_5162_37860" x="0" y="0" width="96" height="96" filterUnits="userSpaceOnUse" color-interpolation-filters="sRGB">
<feFlood flood-opacity="0" result="BackgroundImageFix"/>
<feColorMatrix in="SourceAlpha" type="matrix" values="0 0 0 0 0 0 0 0 0 0 0 0 0 0 0 0 0 0 127 0" result="hardAlpha"/>
<feOffset/>
<feGaussianBlur stdDeviation="3"/>
<feColorMatrix type="matrix" values="0 0 0 0 0 0 0 0 0 0 0 0 0 0 0 0 0 0 0.08 0"/>
<feBlend mode="normal" in2="BackgroundImageFix" result="effect1_dropShadow_5162_37860"/>
<feColorMatrix in="SourceAlpha" type="matrix" values="0 0 0 0 0 0 0 0 0 0 0 0 0 0 0 0 0 0 127 0" result="hardAlpha"/>
<feOffset dy="8"/>
<feGaussianBlur stdDeviation="8"/>
<feColorMatrix type="matrix" values="0 0 0 0 0 0 0 0 0 0 0 0 0 0 0 0 0 0 0.1 0"/>
<feBlend mode="normal" in2="effect1_dropShadow_5162_37860" result="effect2_dropShadow_5162_37860"/>
<feBlend mode="normal" in="SourceGraphic" in2="effect2_dropShadow_5162_37860" result="shape"/>
</filter>
<clipPath id="clip0_5162_37860">
<rect width="24" height="22" fill="white" transform="translate(36 29)"/>
</clipPath>
</defs>
</svg>
